<svg width="672" height="486" viewBox="0 0 672 486" fill="none" xmlns="http://www.w3.org/2000/svg">
<rect x="157" y="134" width="1000" height="352" rx="176" fill="#5267DF"/>
<g filter="url(#filter0_d_703_2)">
<rect x="4.50006" y="2.5" width="574.23" height="381.865" rx="25" fill="url(#paint0_linear_703_2)"/>
<rect opacity="0.1" x="56.5305" y="16.8029" width="471.463" height="353.756" rx="5" fill="#2A2A2A"/>
<rect x="23.5305" y="19.8029" width="536" height="346" rx="8" fill="#E8EAF6"/>
<mask id="mask0_703_2" style="mask-type:luminance" maskUnits="userSpaceOnUse" x="23" y="19" width="537" height="347">
<rect x="23.5305" y="19.8029" width="536" height="346" rx="8" fill="white"/>
</mask>
<g mask="url(#mask0_703_2)">
<rect x="20.0001" y="20" width="547" height="59" fill="#5267DF"/>
<circle opacity="0.244768" cx="62.0001" cy="50" r="16" fill="white"/>
<circle opacity="0.104399" cx="523" cy="50" r="16" fill="white"/>
<rect opacity="0.75" x="93.0001" y="40" width="120" height="6" rx="3" fill="white"/>
<rect opacity="0.25" x="93.0001" y="54" width="64" height="6" rx="3" fill="white"/>
<rect x="80.5305" y="112.803" width="261" height="316" rx="8" fill="white"/>
<rect x="375.531" y="112.803" width="128" height="316" rx="8" fill="white"/>
<rect opacity="0.5" x="159" y="151" width="120" height="6" rx="3" fill="#242A45"/>
</g>
<circle cx="128" cy="161" r="16" fill="#F98E5D"/>
<rect opacity="0.25" x="396" y="135" width="88" height="6" rx="3" fill="#242A45"/>
<rect opacity="0.25" x="396" y="155" width="88" height="6" rx="3" fill="#242A45"/>
<rect opacity="0.25" x="396" y="175" width="88" height="6" rx="3" fill="#242A45"/>
<rect opacity="0.25" x="396" y="195" width="88" height="6" rx="3" fill="#242A45"/>
<rect opacity="0.25" x="396" y="229" width="88" height="6" rx="3" fill="#242A45"/>
<rect opacity="0.25" x="396" y="249" width="88" height="6" rx="3" fill="#242A45"/>
<rect opacity="0.25" x="396" y="269" width="88" height="6" rx="3" fill="#242A45"/>
<rect opacity="0.25" x="159" y="165" width="64" height="6" rx="3" fill="#242A45"/>
<circle cx="128" cy="217" r="16" fill="#6AC6D6"/>
<rect opacity="0.5" x="159" y="207" width="120" height="6" rx="3" fill="#242A45"/>
<rect opacity="0.25" x="159" y="221" width="64" height="6" rx="3" fill="#242A45"/>
<circle cx="128" cy="273" r="16" fill="#A47ED4"/>
<rect opacity="0.5" x="159" y="263" width="120" height="6" rx="3" fill="#242A45"/>
<rect opacity="0.25" x="159" y="277" width="64" height="6" rx="3" fill="#242A45"/>
<circle cx="128" cy="329" r="16" fill="#EC7878"/>
<rect opacity="0.5" x="159" y="319" width="120" height="6" rx="3" fill="#242A45"/>
<rect opacity="0.25" x="159" y="333" width="64" height="6" rx="3" fill="#242A45"/>
</g>
<defs>
<filter id="filter0_d_703_2" x="0.500061" y="0.5" width="582.23" height="389.865" filterUnits="userSpaceOnUse" color-interpolation-filters="sRGB">
<feFlood flood-opacity="0" result="BackgroundImageFix"/>
<feColorMatrix in="SourceAlpha" type="matrix" values="0 0 0 0 0 0 0 0 0 0 0 0 0 0 0 0 0 0 127 0" result="hardAlpha"/>
<feOffset dy="2"/>
<feGaussianBlur stdDeviation="2"/>
<feColorMatrix type="matrix" values="0 0 0 0 0 0 0 0 0 0 0 0 0 0 0 0 0 0 0.5 0"/>
<feBlend mode="normal" in2="BackgroundImageFix" result="effect1_dropShadow_703_2"/>
<feBlend mode="normal" in="SourceGraphic" in2="effect1_dropShadow_703_2" result="shape"/>
</filter>
<linearGradient id="paint0_linear_703_2" x1="850.042" y1="196.406" x2="510.325" y2="-314.444" gradientUnits="userSpaceOnUse">
<stop stop-color="#151515"/>
<stop offset="1" stop-color="#3D3D3D"/>
</linearGradient>
</defs>
</svg>
