<svg width="780" height="435" viewBox="0 0 780 435" fill="none" xmlns="http://www.w3.org/2000/svg">
<rect x="-360" y="83" width="1000" height="352" rx="176" fill="#5267DF"/>
<rect x="244" width="536" height="346" rx="8" fill="#E8EAF6"/>
<mask id="mask0_704_5" style="mask-type:luminance" maskUnits="userSpaceOnUse" x="244" y="0" width="536" height="346">
<rect x="244" width="536" height="346" rx="8" fill="white"/>
</mask>
<g mask="url(#mask0_704_5)">
<rect x="240.47" y="0.197021" width="547" height="59" fill="#242A45"/>
<circle opacity="0.244768" cx="282.47" cy="30.197" r="16" fill="white"/>
<circle opacity="0.104399" cx="743.47" cy="30.197" r="16" fill="white"/>
<rect opacity="0.75" x="313.47" y="20.197" width="120" height="6" rx="3" fill="white"/>
<rect opacity="0.25" x="313.47" y="34.197" width="64" height="6" rx="3" fill="white"/>
<rect x="301" y="93" width="261" height="316" rx="8" fill="white"/>
<rect x="596" y="93" width="128" height="316" rx="8" fill="white"/>
<rect opacity="0.5" x="379.47" y="131.197" width="120" height="6" rx="3" fill="#242A45"/>
</g>
<circle cx="348.47" cy="141.197" r="16" fill="#F98E5D"/>
<rect opacity="0.25" x="616.47" y="115.197" width="88" height="6" rx="3" fill="#242A45"/>
<rect opacity="0.25" x="616.47" y="135.197" width="88" height="6" rx="3" fill="#242A45"/>
<rect opacity="0.25" x="616.47" y="155.197" width="88" height="6" rx="3" fill="#242A45"/>
<rect opacity="0.25" x="616.47" y="175.197" width="88" height="6" rx="3" fill="#242A45"/>
<rect opacity="0.25" x="616.47" y="209.197" width="88" height="6" rx="3" fill="#242A45"/>
<rect opacity="0.25" x="616.47" y="229.197" width="88" height="6" rx="3" fill="#242A45"/>
<rect opacity="0.25" x="616.47" y="249.197" width="88" height="6" rx="3" fill="#242A45"/>
<rect opacity="0.25" x="379.47" y="145.197" width="64" height="6" rx="3" fill="#242A45"/>
<circle cx="348.47" cy="197.197" r="16" fill="#6AC6D6"/>
<rect opacity="0.5" x="379.47" y="187.197" width="120" height="6" rx="3" fill="#242A45"/>
<rect opacity="0.25" x="379.47" y="201.197" width="64" height="6" rx="3" fill="#242A45"/>
<circle cx="348.47" cy="253.197" r="16" fill="#A47ED4"/>
<rect opacity="0.5" x="379.47" y="243.197" width="120" height="6" rx="3" fill="#242A45"/>
<rect opacity="0.25" x="379.47" y="257.197" width="64" height="6" rx="3" fill="#242A45"/>
<circle cx="348.47" cy="309.197" r="16" fill="#EC7878"/>
<rect opacity="0.5" x="379.47" y="299.197" width="120" height="6" rx="3" fill="#242A45"/>
<rect opacity="0.25" x="379.47" y="313.197" width="64" height="6" rx="3" fill="#242A45"/>
</svg>
